<svg width="19" height="18" viewBox="0 0 19 18" fill="none" xmlns="http://www.w3.org/2000/svg">
<path d="M9.40001 11.7C10.129 11.7 10.75 11.43 11.299 10.899C11.83 10.35 12.1 9.729 12.1 9C12.1 8.271 11.83 7.65 11.299 7.101C10.75 6.57 10.129 6.3 9.40001 6.3C8.67101 6.3 8.05001 6.57 7.50101 7.101C6.97001 7.65 6.70001 8.271 6.70001 9C6.70001 9.729 6.97001 10.35 7.50101 10.899C8.05001 11.43 8.67101 11.7 9.40001 11.7ZM9.40001 0C11.875 0 13.99 0.9 15.745 2.655C17.5 4.41 18.4 6.525 18.4 9V10.305C18.4 11.205 18.085 11.97 17.5 12.6C16.87 13.203 16.15 13.5 15.25 13.5C14.17 13.5 13.279 13.05 12.604 12.15C11.704 13.05 10.642 13.5 9.40001 13.5C8.16701 13.5 7.10501 13.05 6.21401 12.186C5.35001 11.295 4.90001 10.242 4.90001 9C4.90001 7.767 5.35001 6.705 6.21401 5.814C7.10501 4.95 8.16701 4.5 9.40001 4.5C10.642 4.5 11.695 4.95 12.586 5.814C13.45 6.705 13.9 7.767 13.9 9V10.305C13.9 10.674 14.044 10.998 14.314 11.277C14.584 11.556 14.899 11.7 15.25 11.7C15.628 11.7 15.943 11.556 16.213 11.277C16.483 10.998 16.6 10.674 16.6 10.305V9C16.6 7.029 15.907 5.337 14.485 3.915C13.063 2.493 11.371 1.8 9.40001 1.8C7.42901 1.8 5.73701 2.493 4.31501 3.915C2.89301 5.337 2.20001 7.029 2.20001 9C2.20001 10.971 2.89301 12.663 4.31501 14.085C5.73701 15.507 7.42901 16.2 9.40001 16.2H13.9V18H9.40001C6.92501 18 4.81001 17.1 3.05501 15.345C1.30001 13.59 0.400009 11.475 0.400009 9C0.400009 6.525 1.30001 4.41 3.05501 2.655C4.81001 0.9 6.92501 0 9.40001 0Z" fill="black"/>
</svg>
