<svg width="15" height="16" viewBox="0 0 15 16" fill="none" xmlns="http://www.w3.org/2000/svg">
<path d="M7.42977 0.482697C3.69134 0.482697 0.654358 3.39851 0.654358 6.9878C0.654358 10.5771 3.69134 13.4929 7.42977 13.4929H7.82832V15.7888C11.7023 13.998 14.2052 10.4317 14.2052 6.9878C14.2052 3.39851 11.1682 0.482697 7.42977 0.482697ZM8.22688 11.5796H6.63266V10.049H8.22688V11.5796ZM8.22688 8.90106H6.63266C6.63266 6.41382 9.02398 6.60514 9.02398 5.07453C9.02398 4.23269 8.30659 3.54392 7.42977 3.54392C6.55295 3.54392 5.83555 4.23269 5.83555 5.07453H4.24134C4.24134 3.38321 5.66816 2.01331 7.42977 2.01331C9.19138 2.01331 10.6182 3.38321 10.6182 5.07453C10.6182 6.9878 8.22688 7.17912 8.22688 8.90106Z" fill="black"/>
</svg>
