<svg width="11" height="18" viewBox="0 0 11 18" fill="none" xmlns="http://www.w3.org/2000/svg">
<path d="M5.61783 8.55C5.1236 8.55 4.64961 8.31295 4.30013 7.89099C3.95065 7.46903 3.75432 6.89674 3.75432 6.3C3.75432 5.70326 3.95065 5.13097 4.30013 4.70901C4.64961 4.28705 5.1236 4.05 5.61783 4.05C6.11206 4.05 6.58605 4.28705 6.93553 4.70901C7.285 5.13097 7.48134 5.70326 7.48134 6.3C7.48134 6.59547 7.43314 6.88806 7.33949 7.16104C7.24583 7.43402 7.10857 7.68206 6.93553 7.89099C6.76248 8.09992 6.55705 8.26566 6.33096 8.37873C6.10487 8.4918 5.86255 8.55 5.61783 8.55ZM5.61783 0C4.23398 0 2.9068 0.663748 1.92827 1.84523C0.949742 3.02671 0.400009 4.62914 0.400009 6.3C0.400009 11.025 5.61783 18 5.61783 18C5.61783 18 10.8356 11.025 10.8356 6.3C10.8356 4.62914 10.2859 3.02671 9.30738 1.84523C8.32885 0.663748 7.00168 0 5.61783 0Z" fill="black"/>
</svg>
