<svg width="21" height="21" viewBox="0 0 21 21" fill="none" xmlns="http://www.w3.org/2000/svg">
<rect width="21" height="21" rx="10.5" fill="#EB2828"/>
<path d="M10.9375 6.0375C12.495 6.0375 13.0725 6.78125 13.125 7.875H15.0588C14.9975 6.37 14.0788 4.9875 12.25 4.54125V2.625H9.62503V4.515C9.16128 4.62 8.72379 4.7775 8.33004 4.9875L9.61628 6.27375C9.97503 6.125 10.4125 6.0375 10.9375 6.0375ZM4.66379 3.5525L3.55254 4.66375L6.56254 7.67375C6.56254 9.49375 7.92753 10.4825 9.98378 11.095L13.055 14.1663C12.7575 14.5863 12.1363 14.9625 10.9375 14.9625C9.13503 14.9625 8.42629 14.1575 8.33004 13.125H6.40504C6.51004 15.0413 7.94503 16.1175 9.62503 16.4763V18.375H12.25V16.4938C13.09 16.3363 13.8425 16.0125 14.3938 15.5138L16.3363 17.4563L17.4475 16.345L4.66379 3.5525Z" fill="white"/>
</svg>
