<svg width="19" height="18" viewBox="0 0 19 18" fill="none" xmlns="http://www.w3.org/2000/svg">
<path d="M4.02001 7.79C5.46001 10.62 7.78001 12.94 10.61 14.38L12.81 12.18C13.09 11.9 13.48 11.82 13.83 11.93C14.95 12.3 16.15 12.5 17.4 12.5C17.6652 12.5 17.9196 12.6054 18.1071 12.7929C18.2947 12.9804 18.4 13.2348 18.4 13.5V17C18.4 17.2652 18.2947 17.5196 18.1071 17.7071C17.9196 17.8946 17.6652 18 17.4 18C12.8913 18 8.56731 16.2089 5.37919 13.0208C2.19108 9.8327 0.400009 5.50868 0.400009 1C0.400009 0.734784 0.505366 0.48043 0.692902 0.292893C0.880439 0.105357 1.13479 0 1.40001 0H4.90001C5.16523 0 5.41958 0.105357 5.60712 0.292893C5.79465 0.48043 5.90001 0.734784 5.90001 1C5.90001 2.25 6.10001 3.45 6.47001 4.57C6.58001 4.92 6.50001 5.31 6.22001 5.59L4.02001 7.79Z" fill="black"/>
</svg>
