<svg width="19" height="18" viewBox="0 0 19 18" fill="none" xmlns="http://www.w3.org/2000/svg">
<path d="M9.40001 0C10.5935 0 11.7381 0.474106 12.582 1.31802C13.4259 2.16193 13.9 3.30653 13.9 4.5C13.9 5.69347 13.4259 6.83807 12.582 7.68198C11.7381 8.52589 10.5935 9 9.40001 9C8.20653 9 7.06194 8.52589 6.21803 7.68198C5.37411 6.83807 4.90001 5.69347 4.90001 4.5C4.90001 3.30653 5.37411 2.16193 6.21803 1.31802C7.06194 0.474106 8.20653 0 9.40001 0ZM9.40001 11.25C14.3725 11.25 18.4 13.2638 18.4 15.75V18H0.400009V15.75C0.400009 13.2638 4.42751 11.25 9.40001 11.25Z" fill="black"/>
</svg>
